<svg xmlns="http://www.w3.org/2000/svg" width="480" height="340" viewBox="0 0 480 340">
  <g id="Group_30473" data-name="Group 30473" transform="translate(-85.024 -147.4)">
    <g id="Group_30472" data-name="Group 30472" transform="translate(85.024 147.4)">
      <g id="Group_30442" data-name="Group 30442" transform="translate(80.422 303.711)">
        <rect id="Rectangle_18413" data-name="Rectangle 18413" width="280.267" height="2.256" fill="#383d41"/>
      </g>
      <g id="Group_30443" data-name="Group 30443" transform="translate(464.181 303.711)">
        <rect id="Rectangle_18414" data-name="Rectangle 18414" width="15.818" height="2.256" fill="#383d41"/>
      </g>
      <g id="Group_30448" data-name="Group 30448" transform="translate(25.234 183.196)">
        <g id="Group_30447" data-name="Group 30447">
          <g id="Group_30446" data-name="Group 30446">
            <g id="Group_30444" data-name="Group 30444" transform="translate(72.065 81.991)">
              <path id="Path_35931" data-name="Path 35931" d="M173.909,386.266l2.408,35.8h38.254l-2.577-38.452Z" transform="translate(-172.728 -382.406)" fill="#f54b24"/>
              <path id="Path_35932" data-name="Path 35932" d="M215.872,423.32H175.4l-2.554-37.969,40.3-2.808Zm-38.406-2.251H213.5l-2.421-36.118-35.874,2.5Z" transform="translate(-172.843 -382.543)" fill="#f54b24"/>
            </g>
            <g id="Group_30445" data-name="Group 30445">
              <path id="Path_35933" data-name="Path 35933" d="M149.227,431.33l44.192-109.5-35.325-10.769-48.8,120.271Z" transform="translate(-107.638 -309.686)" fill="#f54b24"/>
              <path id="Path_35934" data-name="Path 35934" d="M150.131,432.609H107.8l49.814-122.769,37.457,11.418Zm-39.019-2.256h37.533L192.09,322.707,158.9,312.587Z" transform="translate(-107.799 -309.841)" fill="#f54b24"/>
            </g>
          </g>
        </g>
      </g>
      <g id="Group_30452" data-name="Group 30452" transform="translate(155.299 201.14)">
        <g id="Group_30451" data-name="Group 30451">
          <g id="Group_30450" data-name="Group 30450">
            <g id="Group_30449" data-name="Group 30449">
              <path id="Path_35935" data-name="Path 35935" d="M226.786,429.321H268.4c-.158-1.709-.3-3.455-.425-5.251q-2.061-31.157,5.067-46.489,7.176-15.3,21.537-16.282,14.043-1.033,22.893,13.2c5.935,9.49,9.541,24.59,10.968,45.371q.326,4.926.422,9.448h42.162c.011-4.028-.109-8.145-.4-12.368a162.133,162.133,0,0,0-6.676-37.617q-5.32-17.095-14.945-29.153A63.041,63.041,0,0,0,325.328,331.9c-9.37-4.109-20.176-5.786-32.487-4.937q-18.8,1.307-31.971,9.419a62.642,62.642,0,0,0-21.137,21.357c-5.346,8.845-9.061,19.15-11.261,30.95a154.57,154.57,0,0,0-1.867,38.257C226.657,427.746,226.724,428.532,226.786,429.321Z" transform="translate(-225.084 -325.626)" fill="#fff"/>
              <path id="Path_35936" data-name="Path 35936" d="M372.232,430.577H327.884l-.026-1.1c-.069-3.069-.211-6.23-.42-9.4-1.411-20.554-5.044-35.642-10.8-44.841-5.629-9.082-13-13.337-21.878-12.683-9.235.632-15.977,5.75-20.618,15.64-4.643,10.02-6.313,25.474-4.96,45.933q.185,2.67.423,5.217l.114,1.235H225.87l-.133-1.685c-.047-.581-.092-1.155-.131-1.738a156.49,156.49,0,0,1,1.884-38.54A93.45,93.45,0,0,1,238.9,357.279,63.992,63.992,0,0,1,260.4,335.548c8.923-5.479,19.848-8.7,32.471-9.58,12.35-.854,23.45.835,33,5.027a64.46,64.46,0,0,1,24.092,18.6,89.528,89.528,0,0,1,15.143,29.526A163.839,163.839,0,0,1,371.836,417c.277,4.055.411,8.247.4,12.451Zm-42.185-2.256h39.973c-.013-3.772-.145-7.522-.394-11.165A161.492,161.492,0,0,0,363,379.8a87.271,87.271,0,0,0-14.748-28.779,62.163,62.163,0,0,0-23.258-17.959c-9.221-4.043-19.979-5.676-31.969-4.846-12.269.854-22.858,3.97-31.475,9.258a61.79,61.79,0,0,0-20.762,20.977,91.222,91.222,0,0,0-11.119,30.576A154.181,154.181,0,0,0,227.817,427c.03.447.063.886.1,1.323h39.375c-.115-1.323-.222-2.668-.316-4.045-1.378-20.845.36-36.675,5.169-47.048,4.95-10.552,12.508-16.245,22.466-16.926.654-.046,1.306-.068,1.949-.068,8.892,0,16.279,4.636,21.955,13.792,6.035,9.653,9.678,24.668,11.137,45.9C329.838,422.75,329.97,425.57,330.047,428.321Z" transform="translate(-225.192 -325.752)" fill="#383d41"/>
            </g>
          </g>
        </g>
      </g>
      <g id="Group_30456" data-name="Group 30456" transform="translate(309.838 160.298)">
        <g id="Group_30455" data-name="Group 30455">
          <g id="Group_30454" data-name="Group 30454">
            <g id="Group_30453" data-name="Group 30453">
              <path id="Path_35937" data-name="Path 35937" d="M510.828,433.921,508.01,416.15l-19.862,1.37-3.012-44.944-38.085,2.651,3.02,44.9L410.613,422.9,459.64,301.531l-35.379-10.776L366.17,433.921Z" transform="translate(-364.514 -289.381)" fill="#f54b24"/>
              <path id="Path_35938" data-name="Path 35938" d="M512.291,435.208H364.675l59.106-145.671,37.511,11.426L412.477,421.81l36.573-2.578-3.02-44.893,40.3-2.808,3.011,44.949,19.764-1.367Zm-144.3-2.258h141.7l-2.45-15.447-19.959,1.379-3.013-44.949-35.874,2.5,3.02,44.9-42.342,2.981,49.239-121.9-33.246-10.127Z" transform="translate(-364.675 -289.537)" fill="#f54b24"/>
            </g>
          </g>
        </g>
      </g>
      <path id="Path_35939" data-name="Path 35939" d="M306.879,337.308c.38,4.807-9.251,9.519-21.514,10.525s-22.512-2.075-22.892-6.882,9.251-9.521,21.514-10.527S306.5,332.5,306.879,337.308Z" transform="translate(-65.87 -124.041)" fill="#e1e5e6"/>
      <path id="Path_35940" data-name="Path 35940" d="M323.612,339.742c-.684,1.938-4.827,2.2-9.257.583s-7.466-4.5-6.784-6.44,4.827-2.2,9.257-.583S324.295,337.8,323.612,339.742Z" transform="translate(-61.011 -123.782)" fill="#e1e5e6"/>
      <g id="Group_30457" data-name="Group 30457" transform="translate(0 303.711)">
        <rect id="Rectangle_18415" data-name="Rectangle 18415" width="13.295" height="2.256" fill="#383d41"/>
      </g>
      <g id="Group_30458" data-name="Group 30458" transform="translate(55.951 322.104)">
        <rect id="Rectangle_18416" data-name="Rectangle 18416" width="13.002" height="2.256" fill="#383d41"/>
      </g>
      <g id="Group_30459" data-name="Group 30459" transform="translate(87.528 322.104)">
        <rect id="Rectangle_18417" data-name="Rectangle 18417" width="23.488" height="2.256" fill="#383d41"/>
      </g>
      <g id="Group_30460" data-name="Group 30460" transform="translate(360.689 322.104)">
        <rect id="Rectangle_18418" data-name="Rectangle 18418" width="10.474" height="2.256" fill="#383d41"/>
      </g>
      <g id="Group_30461" data-name="Group 30461" transform="translate(383.824 322.104)">
        <rect id="Rectangle_18419" data-name="Rectangle 18419" width="45.506" height="2.256" fill="#383d41"/>
      </g>
      <g id="Group_30462" data-name="Group 30462" transform="translate(36.727 337.744)">
        <rect id="Rectangle_18420" data-name="Rectangle 18420" width="11.469" height="2.256" fill="#383d41"/>
      </g>
      <g id="Group_30463" data-name="Group 30463" transform="translate(435.034 337.744)">
        <rect id="Rectangle_18421" data-name="Rectangle 18421" width="11.469" height="2.256" fill="#383d41"/>
      </g>
      <g id="Group_30464" data-name="Group 30464" transform="translate(194.206 163.066)">
        <path id="Path_35941" data-name="Path 35941" d="M272.912,343.459h-.007a2.8,2.8,0,0,1-2.763-2.827c.058-24.614-7.154-40.767-9-43.772a2.791,2.791,0,0,1-.767-1.406,2.916,2.916,0,0,1,.994-2.861,2.76,2.76,0,0,1,2.938-.317c2.6,1.289,6.5,13.767,6.538,13.9a117.224,117.224,0,0,1,4.839,34.475A2.8,2.8,0,0,1,272.912,343.459Z" transform="translate(-260.308 -291.991)" fill="#383d41"/>
      </g>
      <g id="Group_30465" data-name="Group 30465" transform="translate(256.692 151.25)">
        <path id="Path_35942" data-name="Path 35942" d="M332.7,313.086a2.735,2.735,0,0,1-1.916-.781,2.86,2.86,0,0,1-.086-3.989c1.864-1.992,6.709-8.552,4.566-12.356-2.24-3.982-11.284-7.568-16.46-8.894a2.823,2.823,0,0,1-2.012-3.42,2.768,2.768,0,0,1,3.358-2.046c1.6.408,15.783,4.2,19.92,11.555,4.647,8.254-4.958,18.623-5.369,19.063A2.737,2.737,0,0,1,332.7,313.086Z" transform="translate(-316.706 -281.514)" fill="#383d41"/>
      </g>
      <g id="Group_30466" data-name="Group 30466" transform="translate(250.418 38.446)">
        <path id="Path_35943" data-name="Path 35943" d="M313.813,222.729a2.7,2.7,0,0,1-1.289-.327,2.841,2.841,0,0,1-1.16-3.806L329.786,183a2.742,2.742,0,0,1,3.742-1.179,2.841,2.841,0,0,1,1.16,3.806l-18.422,35.6A2.761,2.761,0,0,1,313.813,222.729Z" transform="translate(-311.044 -181.491)" fill="#383d41"/>
      </g>
      <g id="Group_30467" data-name="Group 30467" transform="translate(134.105 94.179)">
        <path id="Path_35944" data-name="Path 35944" d="M253.339,241.29a2.357,2.357,0,0,1-.291-.017l-44.5-4.741a2.819,2.819,0,0,1,.577-5.608l44.5,4.741a2.823,2.823,0,0,1-.286,5.625Z" transform="translate(-206.063 -230.909)" fill="#383d41"/>
      </g>
      <g id="Group_30468" data-name="Group 30468" transform="translate(169.64 48.528)">
        <path id="Path_35945" data-name="Path 35945" d="M343.337,299.8,269.7,322.979a2.806,2.806,0,0,1-3.52-1.89L239.263,232.5a2.91,2.91,0,0,1,.193-2.17l9.491-18.525a2.836,2.836,0,0,1,1.664-1.411l59.841-18.838a2.806,2.806,0,0,1,3.52,1.892l31.222,102.764A2.876,2.876,0,0,1,343.337,299.8Z" transform="translate(-238.028 -190.302)" fill="#fff"/>
        <path id="Path_35946" data-name="Path 35946" d="M268.971,324.363a3.914,3.914,0,0,1-3.745-2.815l-26.914-88.586a4.03,4.03,0,0,1,.27-3.025l9.49-18.523a3.972,3.972,0,0,1,2.319-1.968l59.842-18.838a3.835,3.835,0,0,1,1.16-.178,3.911,3.911,0,0,1,3.745,2.813L346.36,296.009a4.022,4.022,0,0,1-.278,3.042,3.9,3.9,0,0,1-2.31,1.951l-73.641,23.181A3.833,3.833,0,0,1,268.971,324.363Zm42.422-131.68a1.7,1.7,0,0,0-.505.078L251.046,211.6a1.714,1.714,0,0,0-1.008.854l-9.491,18.523a1.753,1.753,0,0,0-.117,1.316l26.914,88.586a1.713,1.713,0,0,0,2.133,1.145l73.642-23.181a1.7,1.7,0,0,0,1-.847,1.76,1.76,0,0,0,.121-1.323L313.022,193.909A1.7,1.7,0,0,0,311.393,192.683Z" transform="translate(-238.136 -190.43)" fill="#f54b24"/>
      </g>
      <path id="Path_35947" data-name="Path 35947" d="M290.919,240.373c1.294,5.691-1.2,11.907-5.564,13.884s-8.957-1.038-10.252-6.731,1.2-11.9,5.564-13.879S289.624,234.682,290.919,240.373Z" transform="translate(-64.542 -136.458)" fill="#383d41"/>
      <path id="Path_35948" data-name="Path 35948" d="M280.54,233.646a9.719,9.719,0,0,0-4.6,4.854,6.524,6.524,0,0,0,7.581,1.58,9.7,9.7,0,0,0,4.592-4.871A6.524,6.524,0,0,0,280.54,233.646Z" transform="translate(-64.415 -136.458)" fill="#fffcf3"/>
      <g id="Group_30469" data-name="Group 30469" transform="translate(169.465 67.234)">
        <path id="Path_35949" data-name="Path 35949" d="M249.565,208.789c-.032.029-.06.061-.09.093l-10.2,19.67a2.9,2.9,0,0,0-.115.527l12.494-3.933a2.805,2.805,0,0,0,1.814-3.5Z" transform="translate(-237.85 -206.79)" fill="#f54b24"/>
        <path id="Path_35950" data-name="Path 35950" d="M237.978,230.9l.215-1.736a4.186,4.186,0,0,1,.161-.737l.074-.176,10.4-19.949a1.745,1.745,0,0,1,.134-.134l1.284-1.152,4.414,14.524a3.969,3.969,0,0,1-.274,2.993,3.866,3.866,0,0,1-2.271,1.919Zm11.432-19-8.079,15.588,10.129-3.191a1.633,1.633,0,0,0,.966-.813,1.687,1.687,0,0,0,.116-1.272Z" transform="translate(-237.978 -207.017)" fill="#f54b24"/>
      </g>
      <path id="Path_35951" data-name="Path 35951" d="M292.379,222.718a2.367,2.367,0,0,1-2.033,2.646,2.343,2.343,0,0,1-2.6-2.068,2.369,2.369,0,0,1,2.034-2.649A2.345,2.345,0,0,1,292.379,222.718Z" transform="translate(-63.143 -138.042)" fill="#383d41"/>
      <path id="Path_35952" data-name="Path 35952" d="M271.712,230.534a2.368,2.368,0,0,1-2.034,2.646,2.376,2.376,0,1,1,2.034-2.646Z" transform="translate(-65.374 -137.044)" fill="#383d41"/>
      <g id="Group_30470" data-name="Group 30470" transform="translate(59.868)">
        <path id="Path_35953" data-name="Path 35953" d="M183.677,170.144H143.043a3.976,3.976,0,0,1-2.9-1.27,4.03,4.03,0,0,1-1.082-2.985,8.963,8.963,0,0,1,.271-1.769,8.615,8.615,0,0,1,6.744-6.378,8.495,8.495,0,0,1,5.166.663,13.689,13.689,0,0,1,26.8-.228,7.862,7.862,0,0,1,2.317-.088,8.3,8.3,0,0,1,7.293,7.878,3.952,3.952,0,0,1-1.079,2.924A4.015,4.015,0,0,1,183.677,170.144Zm-36.03-10.526a6.572,6.572,0,0,0-6.392,5.011,7.033,7.033,0,0,0-.211,1.368,2.015,2.015,0,0,0,.542,1.49,1.976,1.976,0,0,0,1.457.636h40.634a2.042,2.042,0,0,0,1.472-.634,1.876,1.876,0,0,0,.526-1.364,6.377,6.377,0,0,0-5.523-6.03,6,6,0,0,0-2.573.281l-1.112.37-.176-1.176a11.731,11.731,0,0,0-23.309.541l-.177,1.7-1.376-.979A6.5,6.5,0,0,0,147.647,159.618Z" transform="translate(-139.059 -147.4)" fill="#383d41"/>
      </g>
      <g id="Group_30471" data-name="Group 30471" transform="translate(343.615 0.372)">
        <path id="Path_35954" data-name="Path 35954" d="M433.593,169.727H400.115a5.027,5.027,0,0,1-3.569-1.505,4.771,4.771,0,0,1-1.385-3.372,10.267,10.267,0,0,1,.165-1.793,9.806,9.806,0,0,1,6.977-7.684,9.417,9.417,0,0,1,4.836-.06,13.18,13.18,0,0,1,11.915-7.583,13.37,13.37,0,0,1,12.752,9.811,7.3,7.3,0,0,1,6.739,7.334A4.917,4.917,0,0,1,433.593,169.727Zm-28.756-12.683a7.516,7.516,0,0,0-2.015.278,7.783,7.783,0,0,0-5.545,6.1,8.219,8.219,0,0,0-.133,1.433,2.754,2.754,0,0,0,.805,1.941,3.047,3.047,0,0,0,2.165.913h33.479a2.941,2.941,0,0,0,2.968-2.8,5.3,5.3,0,0,0-5.238-5.369,2.165,2.165,0,0,1-.243.029l-.835.038-.178-.833a11.378,11.378,0,0,0-11.013-9.028,11.235,11.235,0,0,0-10.446,7.164l-.356.891-.89-.316A7.512,7.512,0,0,0,404.838,157.044Z" transform="translate(-395.161 -147.73)" fill="#383d41"/>
      </g>
    </g>
    <path id="Path_35955" data-name="Path 35955" d="M366.646,164.954h-.091a4.417,4.417,0,0,0-4.376-4.457v-.092a4.415,4.415,0,0,0,4.376-4.454h.091a4.416,4.416,0,0,0,4.376,4.454v.092A4.418,4.418,0,0,0,366.646,164.954Z" transform="translate(29.918 1.093)" fill="#fff"/>
    <path id="Path_35956" data-name="Path 35956" d="M211.085,182.053H211a4.417,4.417,0,0,0-4.378-4.454v-.093A4.418,4.418,0,0,0,211,173.05h.09a4.418,4.418,0,0,0,4.378,4.456v.093A4.417,4.417,0,0,0,211.085,182.053Z" transform="translate(13.126 3.277)" fill="#fff"/>
    <path id="Path_35957" data-name="Path 35957" d="M299.916,166.281h-.186a9.105,9.105,0,0,0-9.023-9.185v-.188a9.105,9.105,0,0,0,9.023-9.185h.186a9.1,9.1,0,0,0,9.022,9.185v.188A9.1,9.1,0,0,0,299.916,166.281Z" transform="translate(22.203 0.041)" fill="#fff"/>
    <path id="Path_35958" data-name="Path 35958" d="M389.261,204.943h-.135a6.631,6.631,0,0,0-6.57-6.689v-.137a6.629,6.629,0,0,0,6.57-6.687h.135a6.629,6.629,0,0,0,6.57,6.687v.137A6.631,6.631,0,0,0,389.261,204.943Z" transform="translate(32.118 5.626)" fill="#fff"/>
    <path id="Path_35959" data-name="Path 35959" d="M158.325,223.076h-.136a6.629,6.629,0,0,0-6.57-6.687v-.137a6.629,6.629,0,0,0,6.57-6.687h.136a6.628,6.628,0,0,0,6.57,6.687v.137A6.628,6.628,0,0,0,158.325,223.076Z" transform="translate(7.189 7.943)" fill="#fff"/>
  </g>
</svg>
